<svg xmlns="http://www.w3.org/2000/svg" width="594" height="590" viewBox="0 0 594 590" version="1.1"><path d="M 352.168 6.096 C 347.313 8.555, 343.360 13.789, 342.410 19.016 C 342.062 20.932, 341.040 24.975, 340.139 28 C 338.041 35.039, 337.779 71.188, 339.779 77.500 C 340.476 79.700, 341.483 84.826, 342.017 88.891 C 342.550 92.956, 343.715 98.806, 344.605 101.891 C 350.032 120.696, 351.293 124.803, 352.474 127.500 C 353.196 129.150, 354.802 133.200, 356.043 136.500 C 360.569 148.539, 371.410 170.751, 378.493 182.500 C 379.819 184.700, 381.232 187.175, 381.632 188 C 382.388 189.557, 386.929 196.751, 388.262 198.500 C 388.680 199.050, 391.072 202.615, 393.575 206.423 C 396.079 210.231, 398.999 214.454, 400.064 215.808 C 401.129 217.162, 402 218.808, 402 219.465 C 402 220.872, 385.339 237.371, 372.500 248.679 C 358.510 261, 351.985 266, 349.896 266 C 348.645 266, 346.711 263.996, 344.349 260.250 C 312.270 209.387, 286.052 176.067, 248.512 138.449 C 238.055 127.971, 225.496 116.046, 220.602 111.949 C 207.361 100.863, 194.878 91.002, 188.388 86.500 C 185.217 84.300, 180.344 80.907, 177.561 78.960 C 172.093 75.135, 156.669 65.740, 151 62.780 C 149.075 61.775, 145.163 59.633, 142.307 58.021 C 134.268 53.482, 126.966 51.663, 122.074 52.980 C 116.053 54.601, 112.861 57.818, 112.073 63.060 C 110.579 72.995, 113.814 77.600, 126.652 83.815 C 130.418 85.639, 134.175 87.560, 135 88.084 C 135.825 88.609, 137.634 89.592, 139.019 90.269 C 144.761 93.075, 177.015 115.099, 183 120.300 C 183.825 121.017, 189.450 125.594, 195.500 130.471 C 209.250 141.554, 246.380 178.587, 259.575 194.379 C 268.337 204.866, 286.432 228.099, 291.222 235.014 C 292.169 236.381, 294.549 239.750, 296.510 242.500 C 300.035 247.443, 305.217 255.208, 309.522 262 C 322.200 282, 323 283.412, 323 285.809 C 323 288.296, 317.163 293.339, 304 302.221 C 298.775 305.747, 292.475 309.998, 290 311.668 C 282.145 316.966, 270.555 324.472, 269 325.267 C 268.175 325.689, 265.475 327.356, 263 328.972 C 260.525 330.588, 255.655 333.618, 252.177 335.705 C 248.700 337.792, 245.100 339.955, 244.177 340.511 C 243.255 341.067, 239.904 343.204, 236.731 345.261 C 233.557 347.317, 230.708 349, 230.399 349 C 230.090 349, 227.149 350.575, 223.865 352.500 C 220.580 354.425, 217.515 356, 217.052 356 C 216.091 356, 215.197 355.136, 197.500 337.116 C 190.350 329.835, 182.025 322.007, 179 319.720 C 175.975 317.434, 171.910 314.199, 169.967 312.531 C 166.365 309.441, 165.620 308.881, 156 302.032 C 144.459 293.816, 120.152 280.173, 108.500 275.371 C 105.200 274.011, 101.150 272.288, 99.500 271.542 C 95.337 269.659, 83.500 265.374, 77.500 263.577 C 74.750 262.754, 69.575 261.204, 66 260.134 C 62.425 259.064, 57.250 257.857, 54.500 257.452 C 51.750 257.047, 47.793 256.118, 45.708 255.387 C 39.851 253.336, 16.971 251.656, 12.340 252.937 C 7.744 254.209, 7.081 254.653, 4.216 258.385 C -0.521 264.553, 2.602 275.674, 10.169 279.587 C 11.880 280.472, 16.930 281.568, 21.390 282.022 C 39.255 283.841, 65.015 290.452, 82.462 297.695 C 86.842 299.513, 90.771 301, 91.195 301 C 93.690 301, 120.776 315.238, 133.274 323.120 C 137.614 325.857, 150.400 335.388, 157 340.806 C 167.268 349.235, 187.313 369.741, 186.741 371.231 C 186.092 372.924, 164.597 383.741, 141.500 394 C 139.300 394.977, 134.940 396.952, 131.812 398.388 C 128.683 399.825, 125.603 401, 124.966 401 C 124.330 401, 122.614 401.670, 121.154 402.489 C 115.922 405.425, 99.438 411.731, 79.285 418.506 C 73.666 420.394, 68.266 422.371, 67.285 422.898 C 66.303 423.425, 61.590 425.019, 56.811 426.441 C 52.026 427.865, 46.755 430.177, 45.080 431.586 C 39.196 436.537, 38.656 446.963, 43.988 452.669 C 46.270 455.110, 48.013 455.896, 52.350 456.438 C 58.280 457.179, 64.039 456.461, 68 454.487 C 69.375 453.802, 72.075 452.938, 74 452.567 C 75.925 452.196, 79.075 451.293, 81 450.559 C 84.375 449.273, 93.507 445.913, 105 441.729 C 113.626 438.588, 120.237 436.002, 123.500 434.493 C 133.110 430.048, 138.010 428, 139.034 428 C 139.670 428, 141.386 427.355, 142.846 426.568 C 144.306 425.780, 148.200 423.951, 151.500 422.503 C 160.780 418.432, 162.125 417.799, 184.389 407.044 C 197.563 400.680, 205.953 397.168, 207.107 397.534 C 208.690 398.036, 215 406.120, 215 407.646 C 215 407.946, 215.849 409.386, 216.886 410.846 C 219.763 414.895, 229.796 434.685, 232.680 442 C 234.090 445.575, 235.843 449.850, 236.577 451.500 C 241.086 461.642, 247.176 482.269, 250.012 497 C 250.488 499.475, 251.666 505.550, 252.629 510.500 C 253.964 517.358, 254.514 526.920, 254.941 550.672 L 255.500 581.844 258 584.517 C 263.397 590.287, 269.292 591.422, 276.025 587.987 C 282.068 584.904, 282.994 582.707, 284.096 568.837 C 285.299 553.681, 284.292 517.346, 282.368 506.500 C 281.587 502.100, 280.323 494.813, 279.559 490.306 C 278.795 485.799, 277.685 480.624, 277.092 478.806 C 276.500 476.988, 275.367 473.025, 274.576 470 C 271.775 459.299, 269.969 453.463, 268.493 450.349 C 267.672 448.616, 266.985 446.591, 266.966 445.849 C 266.947 445.107, 266.063 442.700, 265 440.500 C 263.937 438.300, 263.053 436.134, 263.034 435.686 C 262.957 433.838, 251.153 409.423, 247.473 403.500 C 246.106 401.300, 244.298 398.150, 243.456 396.500 C 242.614 394.850, 240.627 391.475, 239.041 389 C 234.171 381.401, 234.247 381.281, 249.500 372.595 C 261.040 366.023, 261.647 365.666, 269 361.132 C 279.438 354.696, 297.983 342.799, 303.500 339 C 305.700 337.485, 311.550 333.461, 316.500 330.056 C 321.450 326.652, 327.975 322.086, 331 319.910 C 338.974 314.173, 340.304 314.640, 345.491 325 C 354.593 343.180, 361.368 358.062, 366.430 371 C 368.475 376.225, 370.960 382.525, 371.953 385 C 376.043 395.190, 380.153 407.092, 382.486 415.500 C 383.249 418.250, 384.853 423.650, 386.052 427.500 C 387.250 431.350, 388.804 436.975, 389.505 440 C 390.206 443.025, 391.469 448.200, 392.312 451.500 C 395.431 463.714, 398.261 478.389, 401.031 496.721 C 401.465 499.592, 402.107 509.492, 402.459 518.721 C 403.163 537.168, 404.514 548.081, 406.600 552.162 C 411.480 561.709, 424.967 561.261, 431.094 551.347 C 433.854 546.882, 434.651 534.060, 433.075 519.500 C 432.479 514, 431.544 504.325, 430.996 498 C 430.449 491.675, 429.361 483.350, 428.579 479.500 C 427.797 475.650, 426.893 470.475, 426.570 468 C 423.995 448.288, 409.994 398.866, 399.940 374 C 398.939 371.525, 396.917 366.371, 395.447 362.547 C 389.733 347.685, 385.717 338.699, 374.350 315.345 C 369.757 305.910, 366 297.227, 366 296.050 C 366 293.983, 367.982 291.611, 373.075 287.582 C 383.083 279.665, 402.609 262.456, 412.500 252.834 C 416.606 248.839, 420.368 246.019, 421.600 246.012 C 422.976 246.004, 429.003 251.253, 439.100 261.252 C 463.315 285.235, 480.427 298.122, 504.390 310.424 C 511.435 314.041, 517.667 317, 518.240 317 C 518.812 317, 521.130 317.845, 523.390 318.877 C 534.911 324.140, 541.757 325.417, 560.551 325.808 C 581.837 326.251, 585.262 325.596, 589.500 320.270 C 592.081 317.026, 592.500 315.662, 592.500 310.500 C 592.500 305.701, 592.013 303.851, 590.069 301.260 C 588.733 299.478, 586.708 297.711, 585.569 297.333 C 584.431 296.954, 576.975 296.736, 569 296.846 C 553.316 297.064, 545.609 295.704, 532.023 290.321 C 508.423 280.971, 479.077 259.816, 455.973 235.500 C 446.050 225.055, 445 223.750, 445 221.856 C 445 220.837, 446.913 217.585, 449.250 214.629 C 451.587 211.673, 457.100 204.735, 461.500 199.212 C 465.900 193.689, 470.625 187.539, 472 185.544 C 473.375 183.550, 475.876 180.024, 477.558 177.709 C 480.926 173.073, 490 157.514, 490 156.375 C 490 155.981, 490.597 154.947, 491.326 154.079 C 492.928 152.172, 500.217 135.459, 502.482 128.500 C 505.887 118.038, 509.128 101.515, 508.534 97.645 C 506.649 85.357, 495.096 79.196, 485.896 85.572 C 481.435 88.664, 478.513 94.986, 477.597 103.529 C 476.806 110.910, 472.369 124.343, 467.201 135 C 465.121 139.291, 456.057 155.402, 454 158.467 C 449.646 164.954, 447.899 167.397, 440.392 177.500 C 432.727 187.814, 425.486 196, 424.025 196 C 423.672 196, 422.060 194.178, 420.442 191.951 C 418.824 189.725, 416.123 186.012, 414.440 183.701 C 407.717 174.472, 386 133.415, 386 129.934 C 386 129.315, 385.331 127.614, 384.514 126.154 C 380.492 118.972, 371.711 88.877, 370.027 76.500 C 369.428 72.100, 368.513 66.700, 367.993 64.500 C 365.956 55.879, 366.859 46.595, 371.566 27.765 C 372.355 24.611, 373 20.884, 373 19.483 C 373 15.284, 370.429 10.429, 366.699 7.584 C 361.797 3.845, 357.485 3.404, 352.168 6.096" stroke="none" fill="#0f0804" fill-rule="evenodd"/><path d="M 261.072 1.998 C 252.586 3.037, 243.586 4.341, 241.072 4.897 C 238.557 5.452, 234.475 6.192, 232 6.540 C 227.280 7.203, 209.964 12.949, 191.711 19.909 C 174.862 26.333, 146.833 40.839, 138.777 47.304 C 135.633 49.827, 133.843 50.398, 127.277 50.976 C 116.046 51.964, 113.123 54.051, 108.620 64.293 C 106.632 68.812, 103.037 73.208, 92.259 84.293 C 70.757 106.407, 59.760 120.078, 47.750 139.622 C 31.863 165.477, 16.867 203.294, 10.009 234.803 C 6.814 249.477, 6.035 251.989, 3.459 255.900 C -0.110 261.318, -0.562 266.451, 1.909 273.483 C 3.600 278.291, 4.002 281.832, 4.010 291.965 C 4.024 308.120, 5.516 324.936, 8.504 342.599 C 13 369.182, 18.806 388.316, 30.775 416 C 37.469 431.484, 38.409 434.422, 38.940 441.500 C 39.628 450.692, 41.235 453.791, 46.768 456.598 C 53.899 460.216, 56.062 462.202, 60.637 469.331 C 68.538 481.641, 69.765 483.288, 77.138 491.463 C 84.427 499.547, 117.788 526.803, 134 537.920 C 154.954 552.290, 190.736 568.968, 214.707 575.537 C 221.454 577.387, 233.577 580.309, 241.647 582.031 C 249.717 583.754, 257.485 585.888, 258.910 586.774 C 261.378 588.309, 261.359 588.231, 258.500 585.129 L 255.500 581.874 254.941 550.687 C 254.514 526.920, 253.964 517.359, 252.629 510.500 C 251.666 505.550, 250.488 499.475, 250.012 497 C 247.176 482.269, 241.086 461.642, 236.577 451.500 C 235.843 449.850, 234.090 445.575, 232.680 442 C 229.796 434.685, 219.763 414.895, 216.886 410.846 C 215.849 409.386, 215 407.946, 215 407.646 C 215 406.120, 208.690 398.036, 207.107 397.534 C 205.953 397.168, 197.563 400.680, 184.389 407.044 C 162.125 417.799, 160.780 418.432, 151.500 422.503 C 148.200 423.951, 144.306 425.780, 142.846 426.568 C 141.386 427.355, 139.670 428, 139.034 428 C 138.010 428, 133.110 430.048, 123.500 434.493 C 120.237 436.002, 113.626 438.588, 105 441.729 C 93.507 445.913, 84.375 449.273, 81 450.559 C 79.075 451.293, 75.925 452.196, 74 452.567 C 72.075 452.938, 69.375 453.802, 68 454.487 C 64.039 456.461, 58.280 457.179, 52.350 456.438 C 48.013 455.896, 46.270 455.110, 43.988 452.669 C 38.656 446.963, 39.196 436.537, 45.080 431.586 C 46.755 430.177, 52.026 427.865, 56.811 426.441 C 61.590 425.019, 66.303 423.425, 67.285 422.898 C 68.266 422.371, 73.666 420.394, 79.285 418.506 C 99.438 411.731, 115.922 405.425, 121.154 402.489 C 122.614 401.670, 124.330 401, 124.966 401 C 125.603 401, 128.683 399.825, 131.812 398.388 C 134.940 396.952, 139.300 394.977, 141.500 394 C 164.597 383.741, 186.092 372.924, 186.741 371.231 C 187.133 370.211, 183.133 365.630, 174.411 357.110 C 153.802 336.981, 142.364 328.163, 120.500 315.547 C 111.516 310.363, 92.654 301, 91.195 301 C 90.771 301, 86.842 299.513, 82.462 297.695 C 65.015 290.452, 39.255 283.841, 21.390 282.022 C 16.930 281.568, 11.880 280.472, 10.169 279.587 C 2.602 275.674, -0.521 264.553, 4.216 258.385 C 7.081 254.653, 7.744 254.209, 12.340 252.937 C 16.971 251.656, 39.851 253.336, 45.708 255.387 C 47.793 256.118, 51.750 257.047, 54.500 257.452 C 57.250 257.857, 62.425 259.064, 66 260.134 C 69.575 261.204, 74.750 262.754, 77.500 263.577 C 83.500 265.374, 95.337 269.659, 99.500 271.542 C 101.150 272.288, 105.200 274.011, 108.500 275.371 C 120.152 280.173, 144.459 293.816, 156 302.032 C 165.620 308.881, 166.365 309.441, 169.967 312.531 C 171.910 314.199, 175.975 317.434, 179 319.720 C 182.025 322.007, 190.350 329.835, 197.500 337.116 C 215.197 355.136, 216.091 356, 217.052 356 C 217.515 356, 220.580 354.425, 223.865 352.500 C 227.149 350.575, 230.090 349, 230.399 349 C 230.708 349, 233.557 347.317, 236.731 345.261 C 239.904 343.204, 243.255 341.067, 244.177 340.511 C 245.100 339.955, 248.700 337.792, 252.177 335.705 C 255.655 333.618, 260.525 330.588, 263 328.972 C 265.475 327.356, 268.175 325.689, 269 325.267 C 270.555 324.472, 282.145 316.966, 290 311.668 C 292.475 309.998, 298.775 305.747, 304 302.221 C 317.163 293.339, 323 288.296, 323 285.809 C 323 283.412, 322.200 282, 309.522 262 C 305.217 255.208, 300.035 247.443, 296.510 242.500 C 294.549 239.750, 292.169 236.381, 291.222 235.014 C 286.432 228.099, 268.337 204.866, 259.575 194.379 C 246.380 178.587, 209.250 141.554, 195.500 130.471 C 189.450 125.594, 183.825 121.017, 183 120.300 C 177.015 115.099, 144.761 93.075, 139.019 90.269 C 137.634 89.592, 135.825 88.609, 135 88.084 C 134.175 87.560, 130.418 85.639, 126.652 83.815 C 113.814 77.600, 110.579 72.995, 112.073 63.060 C 112.861 57.818, 116.053 54.601, 122.074 52.980 C 126.966 51.663, 134.268 53.482, 142.307 58.021 C 145.163 59.633, 149.075 61.775, 151 62.780 C 156.669 65.740, 172.093 75.135, 177.561 78.960 C 180.344 80.907, 185.217 84.300, 188.388 86.500 C 194.878 91.002, 207.361 100.863, 220.602 111.949 C 225.496 116.046, 238.055 127.971, 248.512 138.449 C 286.052 176.067, 312.270 209.387, 344.349 260.250 C 346.711 263.996, 348.645 266, 349.896 266 C 351.985 266, 358.510 261, 372.500 248.679 C 385.339 237.371, 402 220.872, 402 219.465 C 402 218.808, 401.129 217.162, 400.064 215.808 C 398.999 214.454, 396.079 210.231, 393.575 206.423 C 391.072 202.615, 388.680 199.050, 388.262 198.500 C 386.929 196.751, 382.388 189.557, 381.632 188 C 381.232 187.175, 379.819 184.700, 378.493 182.500 C 371.410 170.751, 360.569 148.539, 356.043 136.500 C 354.802 133.200, 353.196 129.150, 352.474 127.500 C 351.293 124.803, 350.032 120.696, 344.605 101.891 C 343.715 98.806, 342.550 92.956, 342.017 88.891 C 341.483 84.826, 340.476 79.700, 339.779 77.500 C 337.779 71.188, 338.041 35.039, 340.139 28 C 341.040 24.975, 342.062 20.932, 342.410 19.016 C 343.393 13.611, 347.352 8.492, 352.467 6.016 C 358.484 3.103, 362.727 3.869, 367.916 8.806 C 373.046 13.685, 373.829 17.836, 371.514 27.878 C 370.548 32.070, 369.138 38.229, 368.379 41.564 C 366.793 48.540, 366.622 58.697, 367.993 64.500 C 368.513 66.700, 369.428 72.100, 370.027 76.500 C 371.711 88.877, 380.492 118.972, 384.514 126.154 C 385.331 127.614, 386 129.315, 386 129.934 C 386 133.415, 407.717 174.472, 414.440 183.701 C 416.123 186.012, 418.824 189.725, 420.442 191.951 C 422.060 194.178, 423.672 196, 424.025 196 C 425.486 196, 432.727 187.814, 440.392 177.500 C 447.899 167.397, 449.646 164.954, 454 158.467 C 456.057 155.402, 465.121 139.291, 467.201 135 C 472.369 124.343, 476.806 110.910, 477.597 103.529 C 477.952 100.213, 479.130 95.395, 480.214 92.822 C 486.613 77.630, 505.970 80.926, 508.534 97.645 C 509.128 101.515, 505.887 118.038, 502.482 128.500 C 500.217 135.459, 492.928 152.172, 491.326 154.079 C 490.597 154.947, 490 155.981, 490 156.375 C 490 157.514, 480.926 173.073, 477.558 177.709 C 475.876 180.024, 473.375 183.550, 472 185.544 C 470.625 187.539, 465.900 193.689, 461.500 199.212 C 457.100 204.735, 451.588 211.673, 449.250 214.629 C 443.083 222.428, 442.842 221.680, 455.973 235.500 C 479.077 259.816, 508.423 280.971, 532.023 290.321 C 545.609 295.704, 553.316 297.064, 569 296.846 C 576.975 296.736, 584.431 296.954, 585.569 297.333 C 588.557 298.325, 591.987 303.418, 592.949 308.289 C 593.444 310.797, 593.808 311.489, 593.847 310 C 593.883 308.625, 593.478 305.475, 592.947 303 C 592.416 300.525, 591.802 292.650, 591.584 285.500 C 590.588 252.914, 584.483 221.403, 573.662 193 C 565.735 172.193, 554.342 148.966, 544.477 133.500 C 537.980 123.315, 523.310 104.396, 519.962 101.885 C 518.213 100.573, 515.243 97.925, 513.363 96 C 511.482 94.075, 504.668 87.059, 498.222 80.408 C 484.762 66.523, 477.364 60.410, 459.941 48.775 C 438.097 34.188, 403.176 17.865, 380 11.409 C 376.425 10.413, 372.015 8.591, 370.201 7.360 C 365.099 3.900, 360.340 2.677, 355.131 3.487 C 348.078 4.585, 345.343 4.463, 334.500 2.572 C 318.975 -0.137, 280.947 -0.434, 261.072 1.998 M 412.500 252.834 C 402.609 262.456, 383.083 279.665, 373.075 287.582 C 367.982 291.611, 366 293.983, 366 296.050 C 366 297.227, 369.757 305.910, 374.350 315.345 C 385.717 338.699, 389.733 347.685, 395.447 362.547 C 396.917 366.371, 398.939 371.525, 399.940 374 C 409.994 398.866, 423.995 448.288, 426.570 468 C 426.893 470.475, 427.797 475.650, 428.579 479.500 C 429.361 483.350, 430.449 491.675, 430.996 498 C 431.544 504.325, 432.479 514, 433.075 519.500 C 434.651 534.060, 433.854 546.882, 431.094 551.347 C 424.967 561.261, 411.480 561.709, 406.600 552.162 C 404.514 548.081, 403.163 537.168, 402.459 518.721 C 402.107 509.492, 401.465 499.592, 401.031 496.721 C 398.261 478.389, 395.431 463.714, 392.312 451.500 C 391.469 448.200, 390.206 443.025, 389.505 440 C 388.804 436.975, 387.250 431.350, 386.052 427.500 C 384.853 423.650, 383.249 418.250, 382.486 415.500 C 380.153 407.092, 376.043 395.190, 371.953 385 C 370.960 382.525, 368.475 376.225, 366.430 371 C 361.368 358.062, 354.593 343.180, 345.491 325 C 340.304 314.640, 338.974 314.173, 331 319.910 C 327.975 322.086, 321.450 326.652, 316.500 330.056 C 311.550 333.461, 305.700 337.485, 303.500 339 C 298.060 342.746, 276.119 356.815, 267 362.404 C 262.207 365.343, 260.941 366.080, 249.500 372.595 C 234.247 381.281, 234.171 381.401, 239.041 389 C 240.627 391.475, 242.614 394.850, 243.456 396.500 C 244.298 398.150, 246.106 401.300, 247.473 403.500 C 251.153 409.423, 262.957 433.838, 263.034 435.686 C 263.053 436.134, 263.937 438.300, 265 440.500 C 266.063 442.700, 266.947 445.107, 266.966 445.849 C 266.985 446.591, 267.672 448.616, 268.493 450.349 C 269.969 453.463, 271.775 459.299, 274.576 470 C 275.367 473.025, 276.500 476.988, 277.092 478.806 C 277.685 480.624, 278.795 485.799, 279.559 490.306 C 280.323 494.813, 281.587 502.100, 282.368 506.500 C 285.474 524.006, 285.223 576.977, 282.006 582.990 C 281.382 584.154, 279.439 585.981, 277.686 587.050 C 274.255 589.142, 275.215 589.629, 279.532 587.988 C 281.366 587.290, 284.226 587.329, 288.719 588.112 C 300.301 590.128, 341.631 586.250, 363.234 581.119 C 373.020 578.795, 400.591 569.158, 409.920 564.801 C 413.451 563.151, 418.209 561.239, 420.494 560.552 C 425.689 558.988, 449.562 545.691, 461.088 537.941 C 482.811 523.334, 509.713 498.798, 525.710 479 C 542.400 458.344, 557.224 433.781, 567.396 409.925 C 578.102 384.815, 587.144 352.146, 588.650 333.129 C 588.983 328.933, 590.159 323.349, 591.264 320.720 C 592.368 318.090, 592.986 315.653, 592.636 315.303 C 592.286 314.953, 591.998 315.304, 591.995 316.083 C 591.993 316.863, 590.473 319.152, 588.619 321.170 C 584.324 325.847, 581.305 326.325, 559.325 325.811 C 541.888 325.403, 534.594 323.995, 523.390 318.877 C 521.130 317.845, 518.812 317, 518.240 317 C 517.667 317, 511.435 314.041, 504.390 310.424 C 480.427 298.122, 463.315 285.235, 439.100 261.252 C 429.003 251.253, 422.976 246.004, 421.600 246.012 C 420.368 246.019, 416.606 248.839, 412.500 252.834" stroke="none" fill="#f87a06" fill-rule="evenodd"/></svg>